<mxfile host="app.diagrams.net" modified="2024-03-13T16:56:28.211Z" agent="Mozilla/5.0 (Windows NT 10.0; Win64; x64; rv:123.0) Gecko/20100101 Firefox/123.0" etag="EfNRjkg7EoN0L6ynR-Oo" version="24.0.5" type="device" pages="3">
  <diagram name="Envoyer_un_message" id="Q7V5PPGV4zubUfvQQvJD">
    <mxGraphModel dx="1434" dy="754" grid="1" gridSize="10" guides="1" tooltips="1" connect="1" arrows="1" fold="1" page="1" pageScale="1" pageWidth="1654" pageHeight="1169" math="0" shadow="0">
      <root>
        <mxCell id="0" />
        <mxCell id="1" parent="0" />
        <mxCell id="bcNW7r9IKAMs1ADnbkxP-1" value="envoyer un message" style="shape=umlFrame;whiteSpace=wrap;html=1;pointerEvents=0;width=140;height=30;" vertex="1" parent="1">
          <mxGeometry x="40" y="40" width="1370" height="1080" as="geometry" />
        </mxCell>
        <mxCell id="GirlxjAbYeTFYGx8r_fL-1" value=":Visiteur" style="shape=umlLifeline;perimeter=lifelinePerimeter;whiteSpace=wrap;html=1;container=1;dropTarget=0;collapsible=0;recursiveResize=0;outlineConnect=0;portConstraint=eastwest;newEdgeStyle={&quot;curved&quot;:0,&quot;rounded&quot;:0};" vertex="1" parent="1">
          <mxGeometry x="200" y="80" width="100" height="960" as="geometry" />
        </mxCell>
        <mxCell id="bHhbnyo2PgUQsohjUs_U-1" value="" style="html=1;points=[[0,0,0,0,5],[0,1,0,0,-5],[1,0,0,0,5],[1,1,0,0,-5]];perimeter=orthogonalPerimeter;outlineConnect=0;targetShapes=umlLifeline;portConstraint=eastwest;newEdgeStyle={&quot;curved&quot;:0,&quot;rounded&quot;:0};" vertex="1" parent="GirlxjAbYeTFYGx8r_fL-1">
          <mxGeometry x="45" y="80" width="10" height="80" as="geometry" />
        </mxCell>
        <mxCell id="bHhbnyo2PgUQsohjUs_U-7" value="" style="html=1;points=[[0,0,0,0,5],[0,1,0,0,-5],[1,0,0,0,5],[1,1,0,0,-5]];perimeter=orthogonalPerimeter;outlineConnect=0;targetShapes=umlLifeline;portConstraint=eastwest;newEdgeStyle={&quot;curved&quot;:0,&quot;rounded&quot;:0};" vertex="1" parent="GirlxjAbYeTFYGx8r_fL-1">
          <mxGeometry x="45" y="240" width="10" height="120" as="geometry" />
        </mxCell>
        <mxCell id="GirlxjAbYeTFYGx8r_fL-2" value=":Système" style="shape=umlLifeline;perimeter=lifelinePerimeter;whiteSpace=wrap;html=1;container=1;dropTarget=0;collapsible=0;recursiveResize=0;outlineConnect=0;portConstraint=eastwest;newEdgeStyle={&quot;curved&quot;:0,&quot;rounded&quot;:0};" vertex="1" parent="1">
          <mxGeometry x="610" y="80" width="100" height="1020" as="geometry" />
        </mxCell>
        <mxCell id="bHhbnyo2PgUQsohjUs_U-2" value="" style="html=1;points=[[0,0,0,0,5],[0,1,0,0,-5],[1,0,0,0,5],[1,1,0,0,-5]];perimeter=orthogonalPerimeter;outlineConnect=0;targetShapes=umlLifeline;portConstraint=eastwest;newEdgeStyle={&quot;curved&quot;:0,&quot;rounded&quot;:0};" vertex="1" parent="GirlxjAbYeTFYGx8r_fL-2">
          <mxGeometry x="45" y="80" width="10" height="80" as="geometry" />
        </mxCell>
        <mxCell id="bHhbnyo2PgUQsohjUs_U-8" value="" style="html=1;points=[[0,0,0,0,5],[0,1,0,0,-5],[1,0,0,0,5],[1,1,0,0,-5]];perimeter=orthogonalPerimeter;outlineConnect=0;targetShapes=umlLifeline;portConstraint=eastwest;newEdgeStyle={&quot;curved&quot;:0,&quot;rounded&quot;:0};" vertex="1" parent="GirlxjAbYeTFYGx8r_fL-2">
          <mxGeometry x="45" y="240" width="10" height="120" as="geometry" />
        </mxCell>
        <mxCell id="bHhbnyo2PgUQsohjUs_U-13" value="" style="html=1;points=[[0,0,0,0,5],[0,1,0,0,-5],[1,0,0,0,5],[1,1,0,0,-5]];perimeter=orthogonalPerimeter;outlineConnect=0;targetShapes=umlLifeline;portConstraint=eastwest;newEdgeStyle={&quot;curved&quot;:0,&quot;rounded&quot;:0};" vertex="1" parent="GirlxjAbYeTFYGx8r_fL-2">
          <mxGeometry x="45" y="410" width="10" height="130" as="geometry" />
        </mxCell>
        <mxCell id="bHhbnyo2PgUQsohjUs_U-20" value="" style="html=1;points=[[0,0,0,0,5],[0,1,0,0,-5],[1,0,0,0,5],[1,1,0,0,-5]];perimeter=orthogonalPerimeter;outlineConnect=0;targetShapes=umlLifeline;portConstraint=eastwest;newEdgeStyle={&quot;curved&quot;:0,&quot;rounded&quot;:0};" vertex="1" parent="GirlxjAbYeTFYGx8r_fL-2">
          <mxGeometry x="32.5" y="500" width="10" height="40" as="geometry" />
        </mxCell>
        <mxCell id="bHhbnyo2PgUQsohjUs_U-21" value="10 : vérifier l&#39;authentification" style="html=1;align=left;spacingLeft=2;endArrow=block;rounded=0;edgeStyle=orthogonalEdgeStyle;curved=0;rounded=0;" edge="1" target="bHhbnyo2PgUQsohjUs_U-20" parent="GirlxjAbYeTFYGx8r_fL-2" source="bHhbnyo2PgUQsohjUs_U-13">
          <mxGeometry relative="1" as="geometry">
            <mxPoint x="37.5" y="480" as="sourcePoint" />
            <Array as="points">
              <mxPoint x="-110" y="480" />
              <mxPoint x="-110" y="510" />
            </Array>
          </mxGeometry>
        </mxCell>
        <mxCell id="bHhbnyo2PgUQsohjUs_U-22" value="" style="html=1;points=[[0,0,0,0,5],[0,1,0,0,-5],[1,0,0,0,5],[1,1,0,0,-5]];perimeter=orthogonalPerimeter;outlineConnect=0;targetShapes=umlLifeline;portConstraint=eastwest;newEdgeStyle={&quot;curved&quot;:0,&quot;rounded&quot;:0};" vertex="1" parent="GirlxjAbYeTFYGx8r_fL-2">
          <mxGeometry x="45" y="600" width="10" height="40" as="geometry" />
        </mxCell>
        <mxCell id="bHhbnyo2PgUQsohjUs_U-32" value="" style="html=1;points=[[0,0,0,0,5],[0,1,0,0,-5],[1,0,0,0,5],[1,1,0,0,-5]];perimeter=orthogonalPerimeter;outlineConnect=0;targetShapes=umlLifeline;portConstraint=eastwest;newEdgeStyle={&quot;curved&quot;:0,&quot;rounded&quot;:0};" vertex="1" parent="GirlxjAbYeTFYGx8r_fL-2">
          <mxGeometry x="45" y="680" width="10" height="40" as="geometry" />
        </mxCell>
        <mxCell id="GirlxjAbYeTFYGx8r_fL-3" value="&amp;lt;&amp;lt;user&amp;gt;&amp;gt;&lt;br&gt;Administrateur" style="shape=umlLifeline;perimeter=lifelinePerimeter;whiteSpace=wrap;html=1;container=1;dropTarget=0;collapsible=0;recursiveResize=0;outlineConnect=0;portConstraint=eastwest;newEdgeStyle={&quot;curved&quot;:0,&quot;rounded&quot;:0};" vertex="1" parent="1">
          <mxGeometry x="1020" y="80" width="100" height="1020" as="geometry" />
        </mxCell>
        <mxCell id="bHhbnyo2PgUQsohjUs_U-14" value="" style="html=1;points=[[0,0,0,0,5],[0,1,0,0,-5],[1,0,0,0,5],[1,1,0,0,-5]];perimeter=orthogonalPerimeter;outlineConnect=0;targetShapes=umlLifeline;portConstraint=eastwest;newEdgeStyle={&quot;curved&quot;:0,&quot;rounded&quot;:0};" vertex="1" parent="GirlxjAbYeTFYGx8r_fL-3">
          <mxGeometry x="45" y="410" width="10" height="130" as="geometry" />
        </mxCell>
        <mxCell id="bHhbnyo2PgUQsohjUs_U-30" value="" style="html=1;points=[[0,0,0,0,5],[0,1,0,0,-5],[1,0,0,0,5],[1,1,0,0,-5]];perimeter=orthogonalPerimeter;outlineConnect=0;targetShapes=umlLifeline;portConstraint=eastwest;newEdgeStyle={&quot;curved&quot;:0,&quot;rounded&quot;:0};" vertex="1" parent="GirlxjAbYeTFYGx8r_fL-3">
          <mxGeometry x="45" y="600" width="10" height="40" as="geometry" />
        </mxCell>
        <mxCell id="bHhbnyo2PgUQsohjUs_U-33" value="" style="html=1;points=[[0,0,0,0,5],[0,1,0,0,-5],[1,0,0,0,5],[1,1,0,0,-5]];perimeter=orthogonalPerimeter;outlineConnect=0;targetShapes=umlLifeline;portConstraint=eastwest;newEdgeStyle={&quot;curved&quot;:0,&quot;rounded&quot;:0};" vertex="1" parent="GirlxjAbYeTFYGx8r_fL-3">
          <mxGeometry x="45" y="680" width="10" height="40" as="geometry" />
        </mxCell>
        <mxCell id="bHhbnyo2PgUQsohjUs_U-3" value="1 : ouvrir la page de contact" style="html=1;verticalAlign=bottom;endArrow=block;curved=0;rounded=0;entryX=0;entryY=0;entryDx=0;entryDy=5;exitX=1;exitY=0;exitDx=0;exitDy=5;exitPerimeter=0;" edge="1" target="bHhbnyo2PgUQsohjUs_U-2" parent="1" source="bHhbnyo2PgUQsohjUs_U-1">
          <mxGeometry relative="1" as="geometry">
            <mxPoint x="585" y="165" as="sourcePoint" />
          </mxGeometry>
        </mxCell>
        <mxCell id="bHhbnyo2PgUQsohjUs_U-4" value="2 ; Afficher le formulaire de contact" style="html=1;verticalAlign=bottom;endArrow=open;dashed=1;endSize=8;curved=0;rounded=0;exitX=0;exitY=1;exitDx=0;exitDy=-5;entryX=1;entryY=1;entryDx=0;entryDy=-5;entryPerimeter=0;" edge="1" source="bHhbnyo2PgUQsohjUs_U-2" parent="1" target="bHhbnyo2PgUQsohjUs_U-1">
          <mxGeometry relative="1" as="geometry">
            <mxPoint x="250" y="235" as="targetPoint" />
          </mxGeometry>
        </mxCell>
        <mxCell id="bHhbnyo2PgUQsohjUs_U-9" value="3 : Saisir le nom / prénom" style="html=1;verticalAlign=bottom;endArrow=block;curved=0;rounded=0;entryX=0;entryY=0;entryDx=0;entryDy=5;entryPerimeter=0;exitX=1;exitY=0;exitDx=0;exitDy=5;exitPerimeter=0;" edge="1" parent="1" source="bHhbnyo2PgUQsohjUs_U-7" target="bHhbnyo2PgUQsohjUs_U-8">
          <mxGeometry width="80" relative="1" as="geometry">
            <mxPoint x="370" y="350" as="sourcePoint" />
            <mxPoint x="450" y="350" as="targetPoint" />
          </mxGeometry>
        </mxCell>
        <mxCell id="bHhbnyo2PgUQsohjUs_U-10" value="4 : Saisir le mail de contact" style="html=1;verticalAlign=bottom;endArrow=block;curved=0;rounded=0;entryX=0;entryY=1;entryDx=0;entryDy=-5;entryPerimeter=0;" edge="1" parent="1" source="bHhbnyo2PgUQsohjUs_U-7">
          <mxGeometry width="80" relative="1" as="geometry">
            <mxPoint x="260" y="360" as="sourcePoint" />
            <mxPoint x="655" y="360" as="targetPoint" />
          </mxGeometry>
        </mxCell>
        <mxCell id="bHhbnyo2PgUQsohjUs_U-11" value="5 : Saisir le message" style="html=1;verticalAlign=bottom;endArrow=block;curved=0;rounded=0;exitX=0.55;exitY=0.329;exitDx=0;exitDy=0;exitPerimeter=0;" edge="1" parent="1" source="GirlxjAbYeTFYGx8r_fL-1" target="bHhbnyo2PgUQsohjUs_U-8">
          <mxGeometry width="80" relative="1" as="geometry">
            <mxPoint x="310" y="410" as="sourcePoint" />
            <mxPoint x="650" y="396" as="targetPoint" />
          </mxGeometry>
        </mxCell>
        <mxCell id="bHhbnyo2PgUQsohjUs_U-12" value="6 : Envoyer le message" style="html=1;verticalAlign=bottom;endArrow=block;curved=0;rounded=0;entryX=0;entryY=1;entryDx=0;entryDy=-5;entryPerimeter=0;exitX=1;exitY=1;exitDx=0;exitDy=-5;exitPerimeter=0;" edge="1" parent="1" source="bHhbnyo2PgUQsohjUs_U-7" target="bHhbnyo2PgUQsohjUs_U-8">
          <mxGeometry width="80" relative="1" as="geometry">
            <mxPoint x="260" y="435" as="sourcePoint" />
            <mxPoint x="430" y="440" as="targetPoint" />
          </mxGeometry>
        </mxCell>
        <mxCell id="bHhbnyo2PgUQsohjUs_U-15" value="7 : Consulter la page d&#39;administration" style="html=1;verticalAlign=bottom;endArrow=block;curved=0;rounded=0;exitX=0;exitY=0;exitDx=0;exitDy=5;exitPerimeter=0;entryX=1;entryY=0;entryDx=0;entryDy=5;entryPerimeter=0;" edge="1" parent="1" source="bHhbnyo2PgUQsohjUs_U-14" target="bHhbnyo2PgUQsohjUs_U-13">
          <mxGeometry width="80" relative="1" as="geometry">
            <mxPoint x="690" y="420" as="sourcePoint" />
            <mxPoint x="770" y="420" as="targetPoint" />
          </mxGeometry>
        </mxCell>
        <mxCell id="bHhbnyo2PgUQsohjUs_U-17" value="8 : Demande d&#39;authentification" style="html=1;verticalAlign=bottom;endArrow=open;dashed=1;endSize=8;curved=0;rounded=0;exitX=1;exitY=1;exitDx=0;exitDy=-5;exitPerimeter=0;" edge="1" parent="1">
          <mxGeometry relative="1" as="geometry">
            <mxPoint x="665" y="530" as="sourcePoint" />
            <mxPoint x="1065" y="530" as="targetPoint" />
          </mxGeometry>
        </mxCell>
        <mxCell id="bHhbnyo2PgUQsohjUs_U-19" value="9 : S&#39;authentifier" style="html=1;verticalAlign=bottom;endArrow=block;curved=0;rounded=0;exitX=0;exitY=1;exitDx=0;exitDy=-5;exitPerimeter=0;entryX=1;entryY=1;entryDx=0;entryDy=-5;entryPerimeter=0;" edge="1" parent="1">
          <mxGeometry width="80" relative="1" as="geometry">
            <mxPoint x="1065" y="559.5" as="sourcePoint" />
            <mxPoint x="665" y="559.5" as="targetPoint" />
            <Array as="points">
              <mxPoint x="950" y="559.5" />
            </Array>
          </mxGeometry>
        </mxCell>
        <mxCell id="bHhbnyo2PgUQsohjUs_U-31" value="11 : Afficher la page d&#39;administration " style="html=1;verticalAlign=bottom;endArrow=open;dashed=1;endSize=8;curved=0;rounded=0;" edge="1" parent="1" source="bHhbnyo2PgUQsohjUs_U-22" target="bHhbnyo2PgUQsohjUs_U-30">
          <mxGeometry relative="1" as="geometry">
            <mxPoint x="670" y="700" as="sourcePoint" />
            <mxPoint x="939.5" y="700" as="targetPoint" />
          </mxGeometry>
        </mxCell>
        <mxCell id="bHhbnyo2PgUQsohjUs_U-35" value="12 : Consulter le message" style="html=1;verticalAlign=bottom;endArrow=block;curved=0;rounded=0;entryX=1.3;entryY=0.55;entryDx=0;entryDy=0;entryPerimeter=0;" edge="1" parent="1" source="bHhbnyo2PgUQsohjUs_U-33" target="bHhbnyo2PgUQsohjUs_U-32">
          <mxGeometry width="80" relative="1" as="geometry">
            <mxPoint x="1075.5" y="780" as="sourcePoint" />
            <mxPoint x="670" y="780" as="targetPoint" />
          </mxGeometry>
        </mxCell>
        <mxCell id="bHhbnyo2PgUQsohjUs_U-39" value="Gérer les message" style="shape=umlFrame;whiteSpace=wrap;html=1;pointerEvents=0;width=150;height=30;" vertex="1" parent="1">
          <mxGeometry x="450" y="840" width="920" height="270" as="geometry" />
        </mxCell>
        <mxCell id="bHhbnyo2PgUQsohjUs_U-40" value="" style="endArrow=none;dashed=1;html=1;rounded=0;entryX=1.001;entryY=0.412;entryDx=0;entryDy=0;entryPerimeter=0;exitX=0.003;exitY=0.505;exitDx=0;exitDy=0;exitPerimeter=0;strokeWidth=2;" edge="1" parent="1" target="bHhbnyo2PgUQsohjUs_U-39">
          <mxGeometry width="50" height="50" relative="1" as="geometry">
            <mxPoint x="452.3699999999999" y="950" as="sourcePoint" />
            <mxPoint x="1240" y="952" as="targetPoint" />
          </mxGeometry>
        </mxCell>
        <mxCell id="bHhbnyo2PgUQsohjUs_U-41" value="[Répondre]" style="text;html=1;align=center;verticalAlign=middle;whiteSpace=wrap;rounded=0;" vertex="1" parent="1">
          <mxGeometry x="530" y="890" width="60" height="30" as="geometry" />
        </mxCell>
        <mxCell id="bHhbnyo2PgUQsohjUs_U-42" value="[Supprimer]" style="text;html=1;align=center;verticalAlign=middle;whiteSpace=wrap;rounded=0;" vertex="1" parent="1">
          <mxGeometry x="530" y="1010" width="60" height="30" as="geometry" />
        </mxCell>
        <mxCell id="bHhbnyo2PgUQsohjUs_U-43" value="" style="html=1;points=[[0,0,0,0,5],[0,1,0,0,-5],[1,0,0,0,5],[1,1,0,0,-5]];perimeter=orthogonalPerimeter;outlineConnect=0;targetShapes=umlLifeline;portConstraint=eastwest;newEdgeStyle={&quot;curved&quot;:0,&quot;rounded&quot;:0};" vertex="1" parent="1">
          <mxGeometry x="655" y="860" width="10" height="60" as="geometry" />
        </mxCell>
        <mxCell id="bHhbnyo2PgUQsohjUs_U-44" value="" style="html=1;points=[[0,0,0,0,5],[0,1,0,0,-5],[1,0,0,0,5],[1,1,0,0,-5]];perimeter=orthogonalPerimeter;outlineConnect=0;targetShapes=umlLifeline;portConstraint=eastwest;newEdgeStyle={&quot;curved&quot;:0,&quot;rounded&quot;:0};" vertex="1" parent="1">
          <mxGeometry x="1065" y="860" width="10" height="30" as="geometry" />
        </mxCell>
        <mxCell id="bHhbnyo2PgUQsohjUs_U-45" value="13 : Répondre au message" style="html=1;verticalAlign=bottom;endArrow=block;curved=0;rounded=0;entryX=1;entryY=0;entryDx=0;entryDy=5;entryPerimeter=0;exitX=0;exitY=0;exitDx=0;exitDy=5;exitPerimeter=0;" edge="1" parent="1" source="bHhbnyo2PgUQsohjUs_U-44" target="bHhbnyo2PgUQsohjUs_U-43">
          <mxGeometry width="80" relative="1" as="geometry">
            <mxPoint x="860" y="890" as="sourcePoint" />
            <mxPoint x="940" y="890" as="targetPoint" />
          </mxGeometry>
        </mxCell>
        <mxCell id="bHhbnyo2PgUQsohjUs_U-46" value="14 : Ouvrir le client mail" style="html=1;verticalAlign=bottom;endArrow=open;dashed=1;endSize=8;curved=0;rounded=0;exitX=1;exitY=1;exitDx=0;exitDy=-5;exitPerimeter=0;entryX=0;entryY=0;entryDx=0;entryDy=5;entryPerimeter=0;" edge="1" parent="1" source="bHhbnyo2PgUQsohjUs_U-43" target="bHhbnyo2PgUQsohjUs_U-48">
          <mxGeometry relative="1" as="geometry">
            <mxPoint x="780" y="910" as="sourcePoint" />
            <mxPoint x="700" y="910" as="targetPoint" />
          </mxGeometry>
        </mxCell>
        <mxCell id="bHhbnyo2PgUQsohjUs_U-47" value=":Client Mail" style="shape=umlLifeline;perimeter=lifelinePerimeter;whiteSpace=wrap;html=1;container=1;dropTarget=0;collapsible=0;recursiveResize=0;outlineConnect=0;portConstraint=eastwest;newEdgeStyle={&quot;curved&quot;:0,&quot;rounded&quot;:0};" vertex="1" parent="1">
          <mxGeometry x="1240" y="80" width="100" height="1000" as="geometry" />
        </mxCell>
        <mxCell id="bHhbnyo2PgUQsohjUs_U-48" value="" style="html=1;points=[[0,0,0,0,5],[0,1,0,0,-5],[1,0,0,0,5],[1,1,0,0,-5]];perimeter=orthogonalPerimeter;outlineConnect=0;targetShapes=umlLifeline;portConstraint=eastwest;newEdgeStyle={&quot;curved&quot;:0,&quot;rounded&quot;:0};" vertex="1" parent="bHhbnyo2PgUQsohjUs_U-47">
          <mxGeometry x="45" y="830" width="10" height="20" as="geometry" />
        </mxCell>
        <mxCell id="bHhbnyo2PgUQsohjUs_U-49" value="" style="html=1;points=[[0,0,0,0,5],[0,1,0,0,-5],[1,0,0,0,5],[1,1,0,0,-5]];perimeter=orthogonalPerimeter;outlineConnect=0;targetShapes=umlLifeline;portConstraint=eastwest;newEdgeStyle={&quot;curved&quot;:0,&quot;rounded&quot;:0};" vertex="1" parent="1">
          <mxGeometry x="655" y="970" width="10" height="120" as="geometry" />
        </mxCell>
        <mxCell id="bHhbnyo2PgUQsohjUs_U-50" value="" style="html=1;points=[[0,0,0,0,5],[0,1,0,0,-5],[1,0,0,0,5],[1,1,0,0,-5]];perimeter=orthogonalPerimeter;outlineConnect=0;targetShapes=umlLifeline;portConstraint=eastwest;newEdgeStyle={&quot;curved&quot;:0,&quot;rounded&quot;:0};" vertex="1" parent="1">
          <mxGeometry x="1065" y="970" width="10" height="120" as="geometry" />
        </mxCell>
        <mxCell id="bHhbnyo2PgUQsohjUs_U-51" value="13 : Supprimer le message" style="html=1;verticalAlign=bottom;endArrow=block;curved=0;rounded=0;exitX=0;exitY=0;exitDx=0;exitDy=5;exitPerimeter=0;entryX=1;entryY=0;entryDx=0;entryDy=5;entryPerimeter=0;" edge="1" parent="1" source="bHhbnyo2PgUQsohjUs_U-50" target="bHhbnyo2PgUQsohjUs_U-49">
          <mxGeometry width="80" relative="1" as="geometry">
            <mxPoint x="890" y="990" as="sourcePoint" />
            <mxPoint x="970" y="990" as="targetPoint" />
          </mxGeometry>
        </mxCell>
        <mxCell id="bHhbnyo2PgUQsohjUs_U-52" value="14 : Demander la confirmation" style="html=1;verticalAlign=bottom;endArrow=open;dashed=1;endSize=8;curved=0;rounded=0;" edge="1" parent="1">
          <mxGeometry relative="1" as="geometry">
            <mxPoint x="665" y="1010" as="sourcePoint" />
            <mxPoint x="1065" y="1010" as="targetPoint" />
          </mxGeometry>
        </mxCell>
        <mxCell id="bHhbnyo2PgUQsohjUs_U-54" value="15 : Confirmer la suppression" style="html=1;verticalAlign=bottom;endArrow=block;curved=0;rounded=0;" edge="1" parent="1">
          <mxGeometry width="80" relative="1" as="geometry">
            <mxPoint x="1060" y="1050" as="sourcePoint" />
            <mxPoint x="665" y="1050" as="targetPoint" />
          </mxGeometry>
        </mxCell>
        <mxCell id="bHhbnyo2PgUQsohjUs_U-55" value="16 : Supprimer le message" style="html=1;verticalAlign=bottom;endArrow=open;dashed=1;endSize=8;curved=0;rounded=0;entryX=0;entryY=1;entryDx=0;entryDy=-5;entryPerimeter=0;exitX=1;exitY=1;exitDx=0;exitDy=-5;exitPerimeter=0;" edge="1" parent="1" source="bHhbnyo2PgUQsohjUs_U-49" target="bHhbnyo2PgUQsohjUs_U-50">
          <mxGeometry relative="1" as="geometry">
            <mxPoint x="780" y="1070" as="sourcePoint" />
            <mxPoint x="700" y="1070" as="targetPoint" />
          </mxGeometry>
        </mxCell>
      </root>
    </mxGraphModel>
  </diagram>
  <diagram id="JpGKfwRZy8KmENcqNCSP" name="Enregistrer_un_utilisateur">
    <mxGraphModel dx="1195" dy="628" grid="1" gridSize="10" guides="1" tooltips="1" connect="1" arrows="1" fold="1" page="1" pageScale="1" pageWidth="1654" pageHeight="1169" math="0" shadow="0">
      <root>
        <mxCell id="0" />
        <mxCell id="1" parent="0" />
        <mxCell id="wSkuftrIv6MiIdhFg09n-1" value="Enregistrer un utilisateur" style="shape=umlFrame;whiteSpace=wrap;html=1;pointerEvents=0;width=180;height=30;" vertex="1" parent="1">
          <mxGeometry x="40" y="40" width="1320" height="1400" as="geometry" />
        </mxCell>
        <mxCell id="NfetONeqZyoQNDuPrWpZ-2" value=":Système" style="shape=umlLifeline;perimeter=lifelinePerimeter;whiteSpace=wrap;html=1;container=1;dropTarget=0;collapsible=0;recursiveResize=0;outlineConnect=0;portConstraint=eastwest;newEdgeStyle={&quot;curved&quot;:0,&quot;rounded&quot;:0};" vertex="1" parent="1">
          <mxGeometry x="560" y="80" width="100" height="1350" as="geometry" />
        </mxCell>
        <mxCell id="LqxBuNo71LGIw8iE6HU6-2" value="" style="html=1;points=[[0,0,0,0,5],[0,1,0,0,-5],[1,0,0,0,5],[1,1,0,0,-5]];perimeter=orthogonalPerimeter;outlineConnect=0;targetShapes=umlLifeline;portConstraint=eastwest;newEdgeStyle={&quot;curved&quot;:0,&quot;rounded&quot;:0};" vertex="1" parent="NfetONeqZyoQNDuPrWpZ-2">
          <mxGeometry x="45" y="360" width="10" height="80" as="geometry" />
        </mxCell>
        <mxCell id="klGj2z-SOSi6MAVJteNE-14" value="" style="html=1;points=[[0,0,0,0,5],[0,1,0,0,-5],[1,0,0,0,5],[1,1,0,0,-5]];perimeter=orthogonalPerimeter;outlineConnect=0;targetShapes=umlLifeline;portConstraint=eastwest;newEdgeStyle={&quot;curved&quot;:0,&quot;rounded&quot;:0};" vertex="1" parent="NfetONeqZyoQNDuPrWpZ-2">
          <mxGeometry x="45" y="510" width="10" height="120" as="geometry" />
        </mxCell>
        <mxCell id="4vBWcSk-RQ1MQMRne0kU-1" value="" style="html=1;points=[[0,0,0,0,5],[0,1,0,0,-5],[1,0,0,0,5],[1,1,0,0,-5]];perimeter=orthogonalPerimeter;outlineConnect=0;targetShapes=umlLifeline;portConstraint=eastwest;newEdgeStyle={&quot;curved&quot;:0,&quot;rounded&quot;:0};" vertex="1" parent="NfetONeqZyoQNDuPrWpZ-2">
          <mxGeometry x="45" y="250" width="10" height="40" as="geometry" />
        </mxCell>
        <mxCell id="kyNId4v1fQCbADLEvYbt-1" value="" style="html=1;points=[[0,0,0,0,5],[0,1,0,0,-5],[1,0,0,0,5],[1,1,0,0,-5]];perimeter=orthogonalPerimeter;outlineConnect=0;targetShapes=umlLifeline;portConstraint=eastwest;newEdgeStyle={&quot;curved&quot;:0,&quot;rounded&quot;:0};" vertex="1" parent="NfetONeqZyoQNDuPrWpZ-2">
          <mxGeometry x="45" y="680" width="10" height="40" as="geometry" />
        </mxCell>
        <mxCell id="NfetONeqZyoQNDuPrWpZ-3" value="&amp;lt;&amp;lt;user&amp;gt;&amp;gt;&lt;br&gt;Super_Administrateur" style="shape=umlLifeline;perimeter=lifelinePerimeter;whiteSpace=wrap;html=1;container=1;dropTarget=0;collapsible=0;recursiveResize=0;outlineConnect=0;portConstraint=eastwest;newEdgeStyle={&quot;curved&quot;:0,&quot;rounded&quot;:0};" vertex="1" parent="1">
          <mxGeometry x="920" y="80" width="130" height="1350" as="geometry" />
        </mxCell>
        <mxCell id="Csb2sAObcZ7yoe0NHRyS-4" value="" style="html=1;points=[[0,0,0,0,5],[0,1,0,0,-5],[1,0,0,0,5],[1,1,0,0,-5]];perimeter=orthogonalPerimeter;outlineConnect=0;targetShapes=umlLifeline;portConstraint=eastwest;newEdgeStyle={&quot;curved&quot;:0,&quot;rounded&quot;:0};" vertex="1" parent="NfetONeqZyoQNDuPrWpZ-3">
          <mxGeometry x="60" y="80" width="10" height="130" as="geometry" />
        </mxCell>
        <mxCell id="Csb2sAObcZ7yoe0NHRyS-1" value="" style="html=1;points=[[0,0,0,0,5],[0,1,0,0,-5],[1,0,0,0,5],[1,1,0,0,-5]];perimeter=orthogonalPerimeter;outlineConnect=0;targetShapes=umlLifeline;portConstraint=eastwest;newEdgeStyle={&quot;curved&quot;:0,&quot;rounded&quot;:0};" vertex="1" parent="NfetONeqZyoQNDuPrWpZ-3">
          <mxGeometry x="-315" y="80" width="10" height="130" as="geometry" />
        </mxCell>
        <mxCell id="Csb2sAObcZ7yoe0NHRyS-2" value="" style="html=1;points=[[0,0,0,0,5],[0,1,0,0,-5],[1,0,0,0,5],[1,1,0,0,-5]];perimeter=orthogonalPerimeter;outlineConnect=0;targetShapes=umlLifeline;portConstraint=eastwest;newEdgeStyle={&quot;curved&quot;:0,&quot;rounded&quot;:0};" vertex="1" parent="NfetONeqZyoQNDuPrWpZ-3">
          <mxGeometry x="-327.5" y="170" width="10" height="40" as="geometry" />
        </mxCell>
        <mxCell id="Csb2sAObcZ7yoe0NHRyS-3" value="4 : vérifier l&#39;authentification" style="html=1;align=left;spacingLeft=2;endArrow=block;rounded=0;edgeStyle=orthogonalEdgeStyle;curved=0;rounded=0;" edge="1" parent="NfetONeqZyoQNDuPrWpZ-3" source="Csb2sAObcZ7yoe0NHRyS-1" target="Csb2sAObcZ7yoe0NHRyS-2">
          <mxGeometry relative="1" as="geometry">
            <mxPoint x="-322.5" y="150" as="sourcePoint" />
            <Array as="points">
              <mxPoint x="-470" y="150" />
              <mxPoint x="-470" y="180" />
            </Array>
          </mxGeometry>
        </mxCell>
        <mxCell id="Csb2sAObcZ7yoe0NHRyS-5" value="1 : Consulter la page d&#39;administration" style="html=1;verticalAlign=bottom;endArrow=block;curved=0;rounded=0;exitX=0;exitY=0;exitDx=0;exitDy=5;exitPerimeter=0;entryX=1;entryY=0;entryDx=0;entryDy=5;entryPerimeter=0;" edge="1" parent="NfetONeqZyoQNDuPrWpZ-3" source="Csb2sAObcZ7yoe0NHRyS-4" target="Csb2sAObcZ7yoe0NHRyS-1">
          <mxGeometry width="80" relative="1" as="geometry">
            <mxPoint x="-280" y="10" as="sourcePoint" />
            <mxPoint x="-200" y="10" as="targetPoint" />
          </mxGeometry>
        </mxCell>
        <mxCell id="Csb2sAObcZ7yoe0NHRyS-6" value="2 : Demande d&#39;authentification" style="html=1;verticalAlign=bottom;endArrow=open;dashed=1;endSize=8;curved=0;rounded=0;exitX=1;exitY=1;exitDx=0;exitDy=-5;exitPerimeter=0;" edge="1" parent="NfetONeqZyoQNDuPrWpZ-3" target="Csb2sAObcZ7yoe0NHRyS-4">
          <mxGeometry relative="1" as="geometry">
            <mxPoint x="-305" y="120" as="sourcePoint" />
            <mxPoint y="120" as="targetPoint" />
          </mxGeometry>
        </mxCell>
        <mxCell id="Csb2sAObcZ7yoe0NHRyS-7" value="3 : S&#39;authentifier" style="html=1;verticalAlign=bottom;endArrow=block;curved=0;rounded=0;entryX=1;entryY=1;entryDx=0;entryDy=-5;entryPerimeter=0;" edge="1" parent="NfetONeqZyoQNDuPrWpZ-3" source="Csb2sAObcZ7yoe0NHRyS-4">
          <mxGeometry width="80" relative="1" as="geometry">
            <mxPoint y="150" as="sourcePoint" />
            <mxPoint x="-305" y="149.5" as="targetPoint" />
            <Array as="points">
              <mxPoint x="-20" y="149.5" />
            </Array>
          </mxGeometry>
        </mxCell>
        <mxCell id="O7_lcjHhFDVB--2QjvZz-10" value="" style="html=1;points=[[0,0,0,0,5],[0,1,0,0,-5],[1,0,0,0,5],[1,1,0,0,-5]];perimeter=orthogonalPerimeter;outlineConnect=0;targetShapes=umlLifeline;portConstraint=eastwest;newEdgeStyle={&quot;curved&quot;:0,&quot;rounded&quot;:0};" vertex="1" parent="NfetONeqZyoQNDuPrWpZ-3">
          <mxGeometry x="-315" y="1030" width="10" height="140" as="geometry" />
        </mxCell>
        <mxCell id="O7_lcjHhFDVB--2QjvZz-11" value="" style="html=1;points=[[0,0,0,0,5],[0,1,0,0,-5],[1,0,0,0,5],[1,1,0,0,-5]];perimeter=orthogonalPerimeter;outlineConnect=0;targetShapes=umlLifeline;portConstraint=eastwest;newEdgeStyle={&quot;curved&quot;:0,&quot;rounded&quot;:0};" vertex="1" parent="NfetONeqZyoQNDuPrWpZ-3">
          <mxGeometry x="60" y="1030" width="10" height="140" as="geometry" />
        </mxCell>
        <mxCell id="O7_lcjHhFDVB--2QjvZz-12" value="13 : Supprimer le message" style="html=1;verticalAlign=bottom;endArrow=block;curved=0;rounded=0;exitX=0;exitY=0;exitDx=0;exitDy=5;exitPerimeter=0;entryX=1;entryY=0;entryDx=0;entryDy=5;entryPerimeter=0;" edge="1" parent="NfetONeqZyoQNDuPrWpZ-3" source="O7_lcjHhFDVB--2QjvZz-11" target="O7_lcjHhFDVB--2QjvZz-10">
          <mxGeometry width="80" relative="1" as="geometry">
            <mxPoint x="-80" y="1050" as="sourcePoint" />
            <mxPoint y="1050" as="targetPoint" />
          </mxGeometry>
        </mxCell>
        <mxCell id="O7_lcjHhFDVB--2QjvZz-13" value="14 : Demander la confirmation" style="html=1;verticalAlign=bottom;endArrow=open;dashed=1;endSize=8;curved=0;rounded=0;entryX=0;entryY=0.333;entryDx=0;entryDy=0;entryPerimeter=0;" edge="1" parent="NfetONeqZyoQNDuPrWpZ-3" source="O7_lcjHhFDVB--2QjvZz-10">
          <mxGeometry relative="1" as="geometry">
            <mxPoint x="-305" y="1063.38" as="sourcePoint" />
            <mxPoint x="60" y="1070" as="targetPoint" />
          </mxGeometry>
        </mxCell>
        <mxCell id="O7_lcjHhFDVB--2QjvZz-14" value="15 : Confirmer la suppression" style="html=1;verticalAlign=bottom;endArrow=block;curved=0;rounded=0;" edge="1" parent="NfetONeqZyoQNDuPrWpZ-3" source="O7_lcjHhFDVB--2QjvZz-11">
          <mxGeometry width="80" relative="1" as="geometry">
            <mxPoint x="20" y="1110" as="sourcePoint" />
            <mxPoint x="-305" y="1110" as="targetPoint" />
          </mxGeometry>
        </mxCell>
        <mxCell id="O7_lcjHhFDVB--2QjvZz-15" value="16 : Supprimer le message" style="html=1;verticalAlign=bottom;endArrow=open;dashed=1;endSize=8;curved=0;rounded=0;entryX=0;entryY=1;entryDx=0;entryDy=-5;entryPerimeter=0;exitX=1;exitY=1;exitDx=0;exitDy=-5;exitPerimeter=0;" edge="1" parent="NfetONeqZyoQNDuPrWpZ-3" source="O7_lcjHhFDVB--2QjvZz-10" target="O7_lcjHhFDVB--2QjvZz-11">
          <mxGeometry relative="1" as="geometry">
            <mxPoint x="-190" y="1130" as="sourcePoint" />
            <mxPoint x="-270" y="1130" as="targetPoint" />
          </mxGeometry>
        </mxCell>
        <mxCell id="NfetONeqZyoQNDuPrWpZ-4" value=":Visiteur&lt;div&gt;&lt;br&gt;&lt;/div&gt;" style="shape=umlLifeline;perimeter=lifelinePerimeter;whiteSpace=wrap;html=1;container=1;dropTarget=0;collapsible=0;recursiveResize=0;outlineConnect=0;portConstraint=eastwest;newEdgeStyle={&quot;curved&quot;:0,&quot;rounded&quot;:0};" vertex="1" parent="1">
          <mxGeometry x="340" y="80" width="130" height="1350" as="geometry" />
        </mxCell>
        <mxCell id="LqxBuNo71LGIw8iE6HU6-1" value="" style="html=1;points=[[0,0,0,0,5],[0,1,0,0,-5],[1,0,0,0,5],[1,1,0,0,-5]];perimeter=orthogonalPerimeter;outlineConnect=0;targetShapes=umlLifeline;portConstraint=eastwest;newEdgeStyle={&quot;curved&quot;:0,&quot;rounded&quot;:0};" vertex="1" parent="NfetONeqZyoQNDuPrWpZ-4">
          <mxGeometry x="60" y="360" width="10" height="80" as="geometry" />
        </mxCell>
        <mxCell id="klGj2z-SOSi6MAVJteNE-13" value="" style="html=1;points=[[0,0,0,0,5],[0,1,0,0,-5],[1,0,0,0,5],[1,1,0,0,-5]];perimeter=orthogonalPerimeter;outlineConnect=0;targetShapes=umlLifeline;portConstraint=eastwest;newEdgeStyle={&quot;curved&quot;:0,&quot;rounded&quot;:0};" vertex="1" parent="NfetONeqZyoQNDuPrWpZ-4">
          <mxGeometry x="60" y="510" width="10" height="120" as="geometry" />
        </mxCell>
        <mxCell id="LqxBuNo71LGIw8iE6HU6-3" value="6 : ouvrir le formulaire de demande" style="html=1;verticalAlign=bottom;endArrow=block;curved=0;rounded=0;entryX=0;entryY=0;entryDx=0;entryDy=5;exitX=1;exitY=0;exitDx=0;exitDy=5;exitPerimeter=0;" edge="1" parent="1" source="LqxBuNo71LGIw8iE6HU6-1" target="LqxBuNo71LGIw8iE6HU6-2">
          <mxGeometry relative="1" as="geometry">
            <mxPoint x="535" y="445" as="sourcePoint" />
          </mxGeometry>
        </mxCell>
        <mxCell id="LqxBuNo71LGIw8iE6HU6-4" value="&amp;nbsp;7 : Afficher le formulaire de demande" style="html=1;verticalAlign=bottom;endArrow=open;dashed=1;endSize=8;curved=0;rounded=0;exitX=0;exitY=1;exitDx=0;exitDy=-5;entryX=1;entryY=1;entryDx=0;entryDy=-5;entryPerimeter=0;" edge="1" parent="1" source="LqxBuNo71LGIw8iE6HU6-2" target="LqxBuNo71LGIw8iE6HU6-1">
          <mxGeometry relative="1" as="geometry">
            <mxPoint x="200" y="515" as="targetPoint" />
          </mxGeometry>
        </mxCell>
        <mxCell id="klGj2z-SOSi6MAVJteNE-15" value="8 : Saisir le nom / prénom" style="html=1;verticalAlign=bottom;endArrow=block;curved=0;rounded=0;entryX=0;entryY=0;entryDx=0;entryDy=5;entryPerimeter=0;exitX=1;exitY=0;exitDx=0;exitDy=5;exitPerimeter=0;" edge="1" parent="1" source="klGj2z-SOSi6MAVJteNE-13" target="klGj2z-SOSi6MAVJteNE-14">
          <mxGeometry width="80" relative="1" as="geometry">
            <mxPoint x="267.5" y="620" as="sourcePoint" />
            <mxPoint x="347.5" y="620" as="targetPoint" />
          </mxGeometry>
        </mxCell>
        <mxCell id="klGj2z-SOSi6MAVJteNE-16" value="9 : Saisir le mail de contact" style="html=1;verticalAlign=bottom;endArrow=block;curved=0;rounded=0;" edge="1" parent="1" source="klGj2z-SOSi6MAVJteNE-13" target="klGj2z-SOSi6MAVJteNE-14">
          <mxGeometry width="80" relative="1" as="geometry">
            <mxPoint x="380" y="630" as="sourcePoint" />
            <mxPoint x="600" y="630" as="targetPoint" />
            <Array as="points">
              <mxPoint x="540" y="640" />
            </Array>
          </mxGeometry>
        </mxCell>
        <mxCell id="klGj2z-SOSi6MAVJteNE-17" value="10 : Saisir le message" style="html=1;verticalAlign=bottom;endArrow=block;curved=0;rounded=0;" edge="1" parent="1" source="klGj2z-SOSi6MAVJteNE-13">
          <mxGeometry x="-0.0303" width="80" relative="1" as="geometry">
            <mxPoint x="380" y="670" as="sourcePoint" />
            <mxPoint x="605" y="670" as="targetPoint" />
            <mxPoint as="offset" />
          </mxGeometry>
        </mxCell>
        <mxCell id="klGj2z-SOSi6MAVJteNE-18" value="11 : Envoyer la demande" style="html=1;verticalAlign=bottom;endArrow=block;curved=0;rounded=0;entryX=0;entryY=1;entryDx=0;entryDy=-5;entryPerimeter=0;exitX=1;exitY=1;exitDx=0;exitDy=-5;exitPerimeter=0;" edge="1" parent="1" source="klGj2z-SOSi6MAVJteNE-13" target="klGj2z-SOSi6MAVJteNE-14">
          <mxGeometry width="80" relative="1" as="geometry">
            <mxPoint x="157.5" y="705" as="sourcePoint" />
            <mxPoint x="327.5" y="710" as="targetPoint" />
          </mxGeometry>
        </mxCell>
        <mxCell id="4vBWcSk-RQ1MQMRne0kU-2" value="" style="html=1;points=[[0,0,0,0,5],[0,1,0,0,-5],[1,0,0,0,5],[1,1,0,0,-5]];perimeter=orthogonalPerimeter;outlineConnect=0;targetShapes=umlLifeline;portConstraint=eastwest;newEdgeStyle={&quot;curved&quot;:0,&quot;rounded&quot;:0};" vertex="1" parent="1">
          <mxGeometry x="980" y="340" width="10" height="40" as="geometry" />
        </mxCell>
        <mxCell id="4vBWcSk-RQ1MQMRne0kU-3" value="5 : Afficher la page d&#39;administration " style="html=1;verticalAlign=bottom;endArrow=open;dashed=1;endSize=8;curved=0;rounded=0;" edge="1" parent="1" source="4vBWcSk-RQ1MQMRne0kU-1" target="4vBWcSk-RQ1MQMRne0kU-2">
          <mxGeometry relative="1" as="geometry">
            <mxPoint x="585" y="360" as="sourcePoint" />
            <mxPoint x="854.5" y="360" as="targetPoint" />
          </mxGeometry>
        </mxCell>
        <mxCell id="kyNId4v1fQCbADLEvYbt-2" value="" style="html=1;points=[[0,0,0,0,5],[0,1,0,0,-5],[1,0,0,0,5],[1,1,0,0,-5]];perimeter=orthogonalPerimeter;outlineConnect=0;targetShapes=umlLifeline;portConstraint=eastwest;newEdgeStyle={&quot;curved&quot;:0,&quot;rounded&quot;:0};" vertex="1" parent="1">
          <mxGeometry x="980" y="760" width="10" height="40" as="geometry" />
        </mxCell>
        <mxCell id="kyNId4v1fQCbADLEvYbt-3" value="12 : Consulter la demande" style="html=1;verticalAlign=bottom;endArrow=block;curved=0;rounded=0;entryX=1.3;entryY=0.55;entryDx=0;entryDy=0;entryPerimeter=0;" edge="1" parent="1" source="kyNId4v1fQCbADLEvYbt-2" target="kyNId4v1fQCbADLEvYbt-1">
          <mxGeometry width="80" relative="1" as="geometry">
            <mxPoint x="990.5" y="780" as="sourcePoint" />
            <mxPoint x="585" y="780" as="targetPoint" />
          </mxGeometry>
        </mxCell>
        <mxCell id="O7_lcjHhFDVB--2QjvZz-1" value="Traiter la demande" style="shape=umlFrame;whiteSpace=wrap;html=1;pointerEvents=0;width=150;height=30;" vertex="1" parent="1">
          <mxGeometry x="440" y="860" width="900" height="530" as="geometry" />
        </mxCell>
        <mxCell id="O7_lcjHhFDVB--2QjvZz-2" value="" style="endArrow=none;dashed=1;html=1;rounded=0;entryX=0.998;entryY=0.375;entryDx=0;entryDy=0;entryPerimeter=0;exitX=0.001;exitY=0.372;exitDx=0;exitDy=0;exitPerimeter=0;strokeWidth=2;" edge="1" parent="1">
          <mxGeometry width="50" height="50" relative="1" as="geometry">
            <mxPoint x="442.7000000000001" y="1060" as="sourcePoint" />
            <mxPoint x="1340.0000000000002" y="1061.23" as="targetPoint" />
          </mxGeometry>
        </mxCell>
        <mxCell id="O7_lcjHhFDVB--2QjvZz-3" value="[Accepter la demande]" style="text;html=1;align=center;verticalAlign=middle;whiteSpace=wrap;rounded=0;" vertex="1" parent="1">
          <mxGeometry x="455" y="940" width="130" height="30" as="geometry" />
        </mxCell>
        <mxCell id="O7_lcjHhFDVB--2QjvZz-4" value="[Refuser la demande]" style="text;html=1;align=center;verticalAlign=middle;whiteSpace=wrap;rounded=0;" vertex="1" parent="1">
          <mxGeometry x="455" y="1110" width="140" height="30" as="geometry" />
        </mxCell>
        <mxCell id="O7_lcjHhFDVB--2QjvZz-5" value="" style="html=1;points=[[0,0,0,0,5],[0,1,0,0,-5],[1,0,0,0,5],[1,1,0,0,-5]];perimeter=orthogonalPerimeter;outlineConnect=0;targetShapes=umlLifeline;portConstraint=eastwest;newEdgeStyle={&quot;curved&quot;:0,&quot;rounded&quot;:0};" vertex="1" parent="1">
          <mxGeometry x="605" y="880" width="10" height="60" as="geometry" />
        </mxCell>
        <mxCell id="O7_lcjHhFDVB--2QjvZz-6" value="" style="html=1;points=[[0,0,0,0,5],[0,1,0,0,-5],[1,0,0,0,5],[1,1,0,0,-5]];perimeter=orthogonalPerimeter;outlineConnect=0;targetShapes=umlLifeline;portConstraint=eastwest;newEdgeStyle={&quot;curved&quot;:0,&quot;rounded&quot;:0};" vertex="1" parent="1">
          <mxGeometry x="980" y="880" width="10" height="30" as="geometry" />
        </mxCell>
        <mxCell id="O7_lcjHhFDVB--2QjvZz-7" value="13 : Valider la demande" style="html=1;verticalAlign=bottom;endArrow=block;curved=0;rounded=0;entryX=1;entryY=0;entryDx=0;entryDy=5;entryPerimeter=0;exitX=0;exitY=0;exitDx=0;exitDy=5;exitPerimeter=0;" edge="1" parent="1" source="O7_lcjHhFDVB--2QjvZz-6" target="O7_lcjHhFDVB--2QjvZz-5">
          <mxGeometry width="80" relative="1" as="geometry">
            <mxPoint x="850" y="910" as="sourcePoint" />
            <mxPoint x="930" y="910" as="targetPoint" />
          </mxGeometry>
        </mxCell>
        <mxCell id="O7_lcjHhFDVB--2QjvZz-8" value="14 : Créer le compte utilisateur" style="html=1;verticalAlign=bottom;endArrow=open;dashed=1;endSize=8;curved=0;rounded=0;exitX=1;exitY=1;exitDx=0;exitDy=-5;exitPerimeter=0;entryX=0;entryY=0;entryDx=0;entryDy=5;entryPerimeter=0;" edge="1" parent="1" source="O7_lcjHhFDVB--2QjvZz-5" target="O7_lcjHhFDVB--2QjvZz-9">
          <mxGeometry relative="1" as="geometry">
            <mxPoint x="770" y="930" as="sourcePoint" />
            <mxPoint x="690" y="930" as="targetPoint" />
          </mxGeometry>
        </mxCell>
        <mxCell id="O7_lcjHhFDVB--2QjvZz-9" value="" style="html=1;points=[[0,0,0,0,5],[0,1,0,0,-5],[1,0,0,0,5],[1,1,0,0,-5]];perimeter=orthogonalPerimeter;outlineConnect=0;targetShapes=umlLifeline;portConstraint=eastwest;newEdgeStyle={&quot;curved&quot;:0,&quot;rounded&quot;:0};" vertex="1" parent="1">
          <mxGeometry x="980" y="930" width="10" height="20" as="geometry" />
        </mxCell>
        <mxCell id="T1T9QCIia-dUYa-SMAkG-1" value=":Client Mail" style="shape=umlLifeline;perimeter=lifelinePerimeter;whiteSpace=wrap;html=1;container=1;dropTarget=0;collapsible=0;recursiveResize=0;outlineConnect=0;portConstraint=eastwest;newEdgeStyle={&quot;curved&quot;:0,&quot;rounded&quot;:0};" vertex="1" parent="1">
          <mxGeometry x="1240" y="80" width="100" height="1350" as="geometry" />
        </mxCell>
        <mxCell id="OhfSze-3WFJWIYSyLMzP-5" value="" style="html=1;points=[[0,0,0,0,5],[0,1,0,0,-5],[1,0,0,0,5],[1,1,0,0,-5]];perimeter=orthogonalPerimeter;outlineConnect=0;targetShapes=umlLifeline;portConstraint=eastwest;newEdgeStyle={&quot;curved&quot;:0,&quot;rounded&quot;:0};" vertex="1" parent="T1T9QCIia-dUYa-SMAkG-1">
          <mxGeometry x="45" y="930" width="10" height="20" as="geometry" />
        </mxCell>
        <mxCell id="OhfSze-3WFJWIYSyLMzP-12" value="" style="html=1;points=[[0,0,0,0,5],[0,1,0,0,-5],[1,0,0,0,5],[1,1,0,0,-5]];perimeter=orthogonalPerimeter;outlineConnect=0;targetShapes=umlLifeline;portConstraint=eastwest;newEdgeStyle={&quot;curved&quot;:0,&quot;rounded&quot;:0};" vertex="1" parent="T1T9QCIia-dUYa-SMAkG-1">
          <mxGeometry x="45" y="1260" width="10" height="20" as="geometry" />
        </mxCell>
        <mxCell id="OhfSze-3WFJWIYSyLMzP-1" value="" style="html=1;points=[[0,0,0,0,5],[0,1,0,0,-5],[1,0,0,0,5],[1,1,0,0,-5]];perimeter=orthogonalPerimeter;outlineConnect=0;targetShapes=umlLifeline;portConstraint=eastwest;newEdgeStyle={&quot;curved&quot;:0,&quot;rounded&quot;:0};" vertex="1" parent="1">
          <mxGeometry x="605" y="960" width="10" height="60" as="geometry" />
        </mxCell>
        <mxCell id="OhfSze-3WFJWIYSyLMzP-2" value="" style="html=1;points=[[0,0,0,0,5],[0,1,0,0,-5],[1,0,0,0,5],[1,1,0,0,-5]];perimeter=orthogonalPerimeter;outlineConnect=0;targetShapes=umlLifeline;portConstraint=eastwest;newEdgeStyle={&quot;curved&quot;:0,&quot;rounded&quot;:0};" vertex="1" parent="1">
          <mxGeometry x="980" y="960" width="10" height="30" as="geometry" />
        </mxCell>
        <mxCell id="OhfSze-3WFJWIYSyLMzP-3" value="15 : Répondre au message" style="html=1;verticalAlign=bottom;endArrow=block;curved=0;rounded=0;entryX=1;entryY=0;entryDx=0;entryDy=5;entryPerimeter=0;exitX=0;exitY=0;exitDx=0;exitDy=5;exitPerimeter=0;" edge="1" parent="1" source="OhfSze-3WFJWIYSyLMzP-2" target="OhfSze-3WFJWIYSyLMzP-1">
          <mxGeometry width="80" relative="1" as="geometry">
            <mxPoint x="810" y="990" as="sourcePoint" />
            <mxPoint x="890" y="990" as="targetPoint" />
          </mxGeometry>
        </mxCell>
        <mxCell id="OhfSze-3WFJWIYSyLMzP-4" value="16 : Ouvrir le client mail" style="html=1;verticalAlign=bottom;endArrow=open;dashed=1;endSize=8;curved=0;rounded=0;exitX=1;exitY=1;exitDx=0;exitDy=-5;exitPerimeter=0;entryX=0;entryY=0;entryDx=0;entryDy=5;entryPerimeter=0;" edge="1" parent="1" source="OhfSze-3WFJWIYSyLMzP-1" target="OhfSze-3WFJWIYSyLMzP-5">
          <mxGeometry x="-0.4776" relative="1" as="geometry">
            <mxPoint x="730" y="1010" as="sourcePoint" />
            <mxPoint x="650" y="1010" as="targetPoint" />
            <mxPoint as="offset" />
          </mxGeometry>
        </mxCell>
        <mxCell id="OhfSze-3WFJWIYSyLMzP-8" value="" style="html=1;points=[[0,0,0,0,5],[0,1,0,0,-5],[1,0,0,0,5],[1,1,0,0,-5]];perimeter=orthogonalPerimeter;outlineConnect=0;targetShapes=umlLifeline;portConstraint=eastwest;newEdgeStyle={&quot;curved&quot;:0,&quot;rounded&quot;:0};" vertex="1" parent="1">
          <mxGeometry x="605" y="1290" width="10" height="60" as="geometry" />
        </mxCell>
        <mxCell id="OhfSze-3WFJWIYSyLMzP-9" value="" style="html=1;points=[[0,0,0,0,5],[0,1,0,0,-5],[1,0,0,0,5],[1,1,0,0,-5]];perimeter=orthogonalPerimeter;outlineConnect=0;targetShapes=umlLifeline;portConstraint=eastwest;newEdgeStyle={&quot;curved&quot;:0,&quot;rounded&quot;:0};" vertex="1" parent="1">
          <mxGeometry x="980" y="1290" width="10" height="30" as="geometry" />
        </mxCell>
        <mxCell id="OhfSze-3WFJWIYSyLMzP-10" value="17 : Répondre au message" style="html=1;verticalAlign=bottom;endArrow=block;curved=0;rounded=0;entryX=1;entryY=0;entryDx=0;entryDy=5;entryPerimeter=0;exitX=0;exitY=0;exitDx=0;exitDy=5;exitPerimeter=0;" edge="1" parent="1" source="OhfSze-3WFJWIYSyLMzP-9" target="OhfSze-3WFJWIYSyLMzP-8">
          <mxGeometry width="80" relative="1" as="geometry">
            <mxPoint x="810" y="1320" as="sourcePoint" />
            <mxPoint x="890" y="1320" as="targetPoint" />
          </mxGeometry>
        </mxCell>
        <mxCell id="OhfSze-3WFJWIYSyLMzP-11" value="18 : Ouvrir le client mail" style="html=1;verticalAlign=bottom;endArrow=open;dashed=1;endSize=8;curved=0;rounded=0;exitX=1;exitY=1;exitDx=0;exitDy=-5;exitPerimeter=0;entryX=0;entryY=0;entryDx=0;entryDy=5;entryPerimeter=0;" edge="1" parent="1" source="OhfSze-3WFJWIYSyLMzP-8" target="OhfSze-3WFJWIYSyLMzP-12">
          <mxGeometry x="-0.4478" relative="1" as="geometry">
            <mxPoint x="730" y="1340" as="sourcePoint" />
            <mxPoint x="650" y="1340" as="targetPoint" />
            <mxPoint as="offset" />
          </mxGeometry>
        </mxCell>
      </root>
    </mxGraphModel>
  </diagram>
  <diagram id="D8Aj0_4Ik65W1igCUXPN" name="Saisir_publier_un_commentaire">
    <mxGraphModel dx="1195" dy="628" grid="1" gridSize="10" guides="1" tooltips="1" connect="1" arrows="1" fold="1" page="1" pageScale="1" pageWidth="1654" pageHeight="1169" math="0" shadow="0">
      <root>
        <mxCell id="0" />
        <mxCell id="1" parent="0" />
        <mxCell id="sBkTOEw9ggUGnP5kCAuv-1" value="Saisir et publier un commentaire" style="shape=umlFrame;whiteSpace=wrap;html=1;pointerEvents=0;width=240;height=30;" vertex="1" parent="1">
          <mxGeometry x="40" y="40" width="1240" height="1240" as="geometry" />
        </mxCell>
        <mxCell id="h_1e4TBfC0kXYHWqgsat-1" value="Visiteur" style="shape=umlLifeline;perimeter=lifelinePerimeter;whiteSpace=wrap;html=1;container=1;dropTarget=0;collapsible=0;recursiveResize=0;outlineConnect=0;portConstraint=eastwest;newEdgeStyle={&quot;curved&quot;:0,&quot;rounded&quot;:0};" vertex="1" parent="1">
          <mxGeometry x="320" y="80" width="100" height="1190" as="geometry" />
        </mxCell>
        <mxCell id="k2-OiTLBkMoIeKtdCeIE-1" value="" style="html=1;points=[[0,0,0,0,5],[0,1,0,0,-5],[1,0,0,0,5],[1,1,0,0,-5]];perimeter=orthogonalPerimeter;outlineConnect=0;targetShapes=umlLifeline;portConstraint=eastwest;newEdgeStyle={&quot;curved&quot;:0,&quot;rounded&quot;:0};" vertex="1" parent="h_1e4TBfC0kXYHWqgsat-1">
          <mxGeometry x="45" y="80" width="10" height="80" as="geometry" />
        </mxCell>
        <mxCell id="w1-S7zDZL7DWDUciGp_0-1" value="" style="html=1;points=[[0,0,0,0,5],[0,1,0,0,-5],[1,0,0,0,5],[1,1,0,0,-5]];perimeter=orthogonalPerimeter;outlineConnect=0;targetShapes=umlLifeline;portConstraint=eastwest;newEdgeStyle={&quot;curved&quot;:0,&quot;rounded&quot;:0};" vertex="1" parent="h_1e4TBfC0kXYHWqgsat-1">
          <mxGeometry x="45" y="200" width="10" height="120" as="geometry" />
        </mxCell>
        <mxCell id="h_1e4TBfC0kXYHWqgsat-2" value=":Système" style="shape=umlLifeline;perimeter=lifelinePerimeter;whiteSpace=wrap;html=1;container=1;dropTarget=0;collapsible=0;recursiveResize=0;outlineConnect=0;portConstraint=eastwest;newEdgeStyle={&quot;curved&quot;:0,&quot;rounded&quot;:0};" vertex="1" parent="1">
          <mxGeometry x="600" y="80" width="100" height="1190" as="geometry" />
        </mxCell>
        <mxCell id="k2-OiTLBkMoIeKtdCeIE-2" value="" style="html=1;points=[[0,0,0,0,5],[0,1,0,0,-5],[1,0,0,0,5],[1,1,0,0,-5]];perimeter=orthogonalPerimeter;outlineConnect=0;targetShapes=umlLifeline;portConstraint=eastwest;newEdgeStyle={&quot;curved&quot;:0,&quot;rounded&quot;:0};" vertex="1" parent="h_1e4TBfC0kXYHWqgsat-2">
          <mxGeometry x="45" y="80" width="10" height="80" as="geometry" />
        </mxCell>
        <mxCell id="w1-S7zDZL7DWDUciGp_0-2" value="" style="html=1;points=[[0,0,0,0,5],[0,1,0,0,-5],[1,0,0,0,5],[1,1,0,0,-5]];perimeter=orthogonalPerimeter;outlineConnect=0;targetShapes=umlLifeline;portConstraint=eastwest;newEdgeStyle={&quot;curved&quot;:0,&quot;rounded&quot;:0};" vertex="1" parent="h_1e4TBfC0kXYHWqgsat-2">
          <mxGeometry x="45" y="200" width="10" height="120" as="geometry" />
        </mxCell>
        <mxCell id="x3jpixoBtso5Cc4Ef9LN-1" value="" style="html=1;points=[[0,0,0,0,5],[0,1,0,0,-5],[1,0,0,0,5],[1,1,0,0,-5]];perimeter=orthogonalPerimeter;outlineConnect=0;targetShapes=umlLifeline;portConstraint=eastwest;newEdgeStyle={&quot;curved&quot;:0,&quot;rounded&quot;:0};" vertex="1" parent="h_1e4TBfC0kXYHWqgsat-2">
          <mxGeometry x="45.00000000000006" y="360" width="10" height="130" as="geometry" />
        </mxCell>
        <mxCell id="x3jpixoBtso5Cc4Ef9LN-2" value="" style="html=1;points=[[0,0,0,0,5],[0,1,0,0,-5],[1,0,0,0,5],[1,1,0,0,-5]];perimeter=orthogonalPerimeter;outlineConnect=0;targetShapes=umlLifeline;portConstraint=eastwest;newEdgeStyle={&quot;curved&quot;:0,&quot;rounded&quot;:0};" vertex="1" parent="h_1e4TBfC0kXYHWqgsat-2">
          <mxGeometry x="35.00000000000006" y="450" width="10" height="40" as="geometry" />
        </mxCell>
        <mxCell id="x3jpixoBtso5Cc4Ef9LN-3" value="10 : vérifier l&#39;authentification" style="html=1;align=left;spacingLeft=2;endArrow=block;rounded=0;edgeStyle=orthogonalEdgeStyle;curved=0;rounded=0;" edge="1" parent="h_1e4TBfC0kXYHWqgsat-2" source="x3jpixoBtso5Cc4Ef9LN-1" target="x3jpixoBtso5Cc4Ef9LN-2">
          <mxGeometry relative="1" as="geometry">
            <mxPoint x="-12.559999999999945" y="430" as="sourcePoint" />
            <Array as="points">
              <mxPoint x="-160.05999999999995" y="430" />
              <mxPoint x="-160.05999999999995" y="460" />
            </Array>
          </mxGeometry>
        </mxCell>
        <mxCell id="x3jpixoBtso5Cc4Ef9LN-4" value="" style="html=1;points=[[0,0,0,0,5],[0,1,0,0,-5],[1,0,0,0,5],[1,1,0,0,-5]];perimeter=orthogonalPerimeter;outlineConnect=0;targetShapes=umlLifeline;portConstraint=eastwest;newEdgeStyle={&quot;curved&quot;:0,&quot;rounded&quot;:0};" vertex="1" parent="h_1e4TBfC0kXYHWqgsat-2">
          <mxGeometry x="45.00000000000006" y="550" width="10" height="40" as="geometry" />
        </mxCell>
        <mxCell id="x3jpixoBtso5Cc4Ef9LN-5" value="" style="html=1;points=[[0,0,0,0,5],[0,1,0,0,-5],[1,0,0,0,5],[1,1,0,0,-5]];perimeter=orthogonalPerimeter;outlineConnect=0;targetShapes=umlLifeline;portConstraint=eastwest;newEdgeStyle={&quot;curved&quot;:0,&quot;rounded&quot;:0};" vertex="1" parent="h_1e4TBfC0kXYHWqgsat-2">
          <mxGeometry x="45.00000000000006" y="630" width="10" height="40" as="geometry" />
        </mxCell>
        <mxCell id="h_1e4TBfC0kXYHWqgsat-3" value="&amp;lt;&amp;lt;user&amp;gt;&amp;gt;&lt;br&gt;Administrateur" style="shape=umlLifeline;perimeter=lifelinePerimeter;whiteSpace=wrap;html=1;container=1;dropTarget=0;collapsible=0;recursiveResize=0;outlineConnect=0;portConstraint=eastwest;newEdgeStyle={&quot;curved&quot;:0,&quot;rounded&quot;:0};" vertex="1" parent="1">
          <mxGeometry x="960" y="80" width="100" height="1190" as="geometry" />
        </mxCell>
        <mxCell id="x3jpixoBtso5Cc4Ef9LN-6" value="" style="html=1;points=[[0,0,0,0,5],[0,1,0,0,-5],[1,0,0,0,5],[1,1,0,0,-5]];perimeter=orthogonalPerimeter;outlineConnect=0;targetShapes=umlLifeline;portConstraint=eastwest;newEdgeStyle={&quot;curved&quot;:0,&quot;rounded&quot;:0};" vertex="1" parent="h_1e4TBfC0kXYHWqgsat-3">
          <mxGeometry x="44.940000000000055" y="360" width="10" height="130" as="geometry" />
        </mxCell>
        <mxCell id="x3jpixoBtso5Cc4Ef9LN-7" value="" style="html=1;points=[[0,0,0,0,5],[0,1,0,0,-5],[1,0,0,0,5],[1,1,0,0,-5]];perimeter=orthogonalPerimeter;outlineConnect=0;targetShapes=umlLifeline;portConstraint=eastwest;newEdgeStyle={&quot;curved&quot;:0,&quot;rounded&quot;:0};" vertex="1" parent="h_1e4TBfC0kXYHWqgsat-3">
          <mxGeometry x="44.940000000000055" y="550" width="10" height="40" as="geometry" />
        </mxCell>
        <mxCell id="x3jpixoBtso5Cc4Ef9LN-8" value="" style="html=1;points=[[0,0,0,0,5],[0,1,0,0,-5],[1,0,0,0,5],[1,1,0,0,-5]];perimeter=orthogonalPerimeter;outlineConnect=0;targetShapes=umlLifeline;portConstraint=eastwest;newEdgeStyle={&quot;curved&quot;:0,&quot;rounded&quot;:0};" vertex="1" parent="h_1e4TBfC0kXYHWqgsat-3">
          <mxGeometry x="44.940000000000055" y="630" width="10" height="40" as="geometry" />
        </mxCell>
        <mxCell id="x3jpixoBtso5Cc4Ef9LN-10" value="8 : Demande d&#39;authentification" style="html=1;verticalAlign=bottom;endArrow=open;dashed=1;endSize=8;curved=0;rounded=0;" edge="1" parent="h_1e4TBfC0kXYHWqgsat-3" source="x3jpixoBtso5Cc4Ef9LN-1">
          <mxGeometry relative="1" as="geometry">
            <mxPoint x="-355.05999999999995" y="400" as="sourcePoint" />
            <mxPoint x="44.940000000000055" y="400" as="targetPoint" />
          </mxGeometry>
        </mxCell>
        <mxCell id="x3jpixoBtso5Cc4Ef9LN-11" value="9 : S&#39;authentifier" style="html=1;verticalAlign=bottom;endArrow=block;curved=0;rounded=0;exitX=0;exitY=1;exitDx=0;exitDy=-5;exitPerimeter=0;entryX=0.5;entryY=0.538;entryDx=0;entryDy=0;entryPerimeter=0;" edge="1" parent="h_1e4TBfC0kXYHWqgsat-3" target="x3jpixoBtso5Cc4Ef9LN-1">
          <mxGeometry width="80" relative="1" as="geometry">
            <mxPoint x="44.940000000000055" y="429.5" as="sourcePoint" />
            <mxPoint x="-300" y="430" as="targetPoint" />
            <Array as="points">
              <mxPoint x="-70.05999999999995" y="429.5" />
            </Array>
          </mxGeometry>
        </mxCell>
        <mxCell id="KktWkr9wCJq6x6uFG-sO-2" value="" style="html=1;points=[[0,0,0,0,5],[0,1,0,0,-5],[1,0,0,0,5],[1,1,0,0,-5]];perimeter=orthogonalPerimeter;outlineConnect=0;targetShapes=umlLifeline;portConstraint=eastwest;newEdgeStyle={&quot;curved&quot;:0,&quot;rounded&quot;:0};" vertex="1" parent="h_1e4TBfC0kXYHWqgsat-3">
          <mxGeometry x="45" y="960" width="10" height="140" as="geometry" />
        </mxCell>
        <mxCell id="k2-OiTLBkMoIeKtdCeIE-3" value="1 : Créer un commentaire" style="html=1;verticalAlign=bottom;endArrow=block;curved=0;rounded=0;entryX=0;entryY=0;entryDx=0;entryDy=5;exitX=1;exitY=0;exitDx=0;exitDy=5;exitPerimeter=0;" edge="1" parent="1" source="k2-OiTLBkMoIeKtdCeIE-1" target="k2-OiTLBkMoIeKtdCeIE-2">
          <mxGeometry relative="1" as="geometry">
            <mxPoint x="580" y="165" as="sourcePoint" />
          </mxGeometry>
        </mxCell>
        <mxCell id="k2-OiTLBkMoIeKtdCeIE-4" value="2 ; Afficher le formulaire du commentaire" style="html=1;verticalAlign=bottom;endArrow=open;dashed=1;endSize=8;curved=0;rounded=0;exitX=0;exitY=1;exitDx=0;exitDy=-5;entryX=1;entryY=1;entryDx=0;entryDy=-5;entryPerimeter=0;" edge="1" parent="1" source="k2-OiTLBkMoIeKtdCeIE-2" target="k2-OiTLBkMoIeKtdCeIE-1">
          <mxGeometry relative="1" as="geometry">
            <mxPoint x="245" y="235" as="targetPoint" />
          </mxGeometry>
        </mxCell>
        <mxCell id="w1-S7zDZL7DWDUciGp_0-3" value="3 : Saisir le nom / prénom" style="html=1;verticalAlign=bottom;endArrow=block;curved=0;rounded=0;entryX=0;entryY=0;entryDx=0;entryDy=5;entryPerimeter=0;exitX=1;exitY=0;exitDx=0;exitDy=5;exitPerimeter=0;" edge="1" parent="1" source="w1-S7zDZL7DWDUciGp_0-1" target="w1-S7zDZL7DWDUciGp_0-2">
          <mxGeometry width="80" relative="1" as="geometry">
            <mxPoint x="360" y="310" as="sourcePoint" />
            <mxPoint x="440" y="310" as="targetPoint" />
          </mxGeometry>
        </mxCell>
        <mxCell id="w1-S7zDZL7DWDUciGp_0-6" value="6 : soumettre un commentaire" style="html=1;verticalAlign=bottom;endArrow=block;curved=0;rounded=0;entryX=0;entryY=1;entryDx=0;entryDy=-5;entryPerimeter=0;exitX=1;exitY=1;exitDx=0;exitDy=-5;exitPerimeter=0;" edge="1" parent="1" source="w1-S7zDZL7DWDUciGp_0-1" target="w1-S7zDZL7DWDUciGp_0-2">
          <mxGeometry width="80" relative="1" as="geometry">
            <mxPoint x="250" y="395" as="sourcePoint" />
            <mxPoint x="420" y="400" as="targetPoint" />
          </mxGeometry>
        </mxCell>
        <mxCell id="w1-S7zDZL7DWDUciGp_0-5" value="5 : Saisir le commentaire" style="html=1;verticalAlign=bottom;endArrow=block;curved=0;rounded=0;" edge="1" parent="1" source="w1-S7zDZL7DWDUciGp_0-1">
          <mxGeometry width="80" relative="1" as="geometry">
            <mxPoint x="380" y="340" as="sourcePoint" />
            <mxPoint x="645" y="339.5" as="targetPoint" />
          </mxGeometry>
        </mxCell>
        <mxCell id="x3jpixoBtso5Cc4Ef9LN-9" value="7 : Consulter la page d&#39;administration" style="html=1;verticalAlign=bottom;endArrow=block;curved=0;rounded=0;exitX=0;exitY=0;exitDx=0;exitDy=5;exitPerimeter=0;entryX=1;entryY=0;entryDx=0;entryDy=5;entryPerimeter=0;" edge="1" parent="1" source="x3jpixoBtso5Cc4Ef9LN-6" target="x3jpixoBtso5Cc4Ef9LN-1">
          <mxGeometry width="80" relative="1" as="geometry">
            <mxPoint x="629.94" y="370" as="sourcePoint" />
            <mxPoint x="709.94" y="370" as="targetPoint" />
          </mxGeometry>
        </mxCell>
        <mxCell id="x3jpixoBtso5Cc4Ef9LN-12" value="11 : Afficher la page de gestion des commentaires " style="html=1;verticalAlign=bottom;endArrow=open;dashed=1;endSize=8;curved=0;rounded=0;" edge="1" parent="1" source="x3jpixoBtso5Cc4Ef9LN-4" target="x3jpixoBtso5Cc4Ef9LN-7">
          <mxGeometry relative="1" as="geometry">
            <mxPoint x="609.94" y="650" as="sourcePoint" />
            <mxPoint x="879.44" y="650" as="targetPoint" />
          </mxGeometry>
        </mxCell>
        <mxCell id="x3jpixoBtso5Cc4Ef9LN-13" value="12 : Consulter le commentaire" style="html=1;verticalAlign=bottom;endArrow=block;curved=0;rounded=0;entryX=1.3;entryY=0.55;entryDx=0;entryDy=0;entryPerimeter=0;" edge="1" parent="1" source="x3jpixoBtso5Cc4Ef9LN-8" target="x3jpixoBtso5Cc4Ef9LN-5">
          <mxGeometry width="80" relative="1" as="geometry">
            <mxPoint x="1015.44" y="730" as="sourcePoint" />
            <mxPoint x="609.94" y="730" as="targetPoint" />
          </mxGeometry>
        </mxCell>
        <mxCell id="KktWkr9wCJq6x6uFG-sO-1" value="" style="html=1;points=[[0,0,0,0,5],[0,1,0,0,-5],[1,0,0,0,5],[1,1,0,0,-5]];perimeter=orthogonalPerimeter;outlineConnect=0;targetShapes=umlLifeline;portConstraint=eastwest;newEdgeStyle={&quot;curved&quot;:0,&quot;rounded&quot;:0};" vertex="1" parent="1">
          <mxGeometry x="645" y="1040" width="10" height="140" as="geometry" />
        </mxCell>
        <mxCell id="KktWkr9wCJq6x6uFG-sO-3" value="13 : Supprimer le commentaire" style="html=1;verticalAlign=bottom;endArrow=block;curved=0;rounded=0;exitX=0;exitY=0;exitDx=0;exitDy=5;exitPerimeter=0;entryX=1;entryY=0;entryDx=0;entryDy=5;entryPerimeter=0;" edge="1" parent="1" source="KktWkr9wCJq6x6uFG-sO-2" target="KktWkr9wCJq6x6uFG-sO-1">
          <mxGeometry width="80" relative="1" as="geometry">
            <mxPoint x="850" y="1060" as="sourcePoint" />
            <mxPoint x="930" y="1060" as="targetPoint" />
          </mxGeometry>
        </mxCell>
        <mxCell id="KktWkr9wCJq6x6uFG-sO-4" value="14 : Demander la confirmation" style="html=1;verticalAlign=bottom;endArrow=open;dashed=1;endSize=8;curved=0;rounded=0;entryX=0.5;entryY=0.286;entryDx=0;entryDy=0;entryPerimeter=0;" edge="1" parent="1" source="KktWkr9wCJq6x6uFG-sO-1" target="KktWkr9wCJq6x6uFG-sO-2">
          <mxGeometry relative="1" as="geometry">
            <mxPoint x="625" y="1073.38" as="sourcePoint" />
            <mxPoint x="990" y="1080" as="targetPoint" />
          </mxGeometry>
        </mxCell>
        <mxCell id="KktWkr9wCJq6x6uFG-sO-5" value="15 : Confirmer la suppression" style="html=1;verticalAlign=bottom;endArrow=block;curved=0;rounded=0;" edge="1" parent="1">
          <mxGeometry width="80" relative="1" as="geometry">
            <mxPoint x="1005" y="1130" as="sourcePoint" />
            <mxPoint x="655" y="1130" as="targetPoint" />
          </mxGeometry>
        </mxCell>
        <mxCell id="KktWkr9wCJq6x6uFG-sO-6" value="16 : Supprimer le commentaire" style="html=1;verticalAlign=bottom;endArrow=open;dashed=1;endSize=8;curved=0;rounded=0;entryX=0;entryY=1;entryDx=0;entryDy=-5;entryPerimeter=0;exitX=1;exitY=1;exitDx=0;exitDy=-5;exitPerimeter=0;" edge="1" parent="1" source="KktWkr9wCJq6x6uFG-sO-1" target="KktWkr9wCJq6x6uFG-sO-2">
          <mxGeometry relative="1" as="geometry">
            <mxPoint x="740" y="1140" as="sourcePoint" />
            <mxPoint x="660" y="1140" as="targetPoint" />
          </mxGeometry>
        </mxCell>
        <mxCell id="KktWkr9wCJq6x6uFG-sO-7" value="Traiter le commentaire" style="shape=umlFrame;whiteSpace=wrap;html=1;pointerEvents=0;width=150;height=30;" vertex="1" parent="1">
          <mxGeometry x="450" y="790" width="750" height="420" as="geometry" />
        </mxCell>
        <mxCell id="KktWkr9wCJq6x6uFG-sO-8" value="" style="endArrow=none;dashed=1;html=1;rounded=0;exitX=0.001;exitY=0.372;exitDx=0;exitDy=0;exitPerimeter=0;strokeWidth=2;" edge="1" parent="1">
          <mxGeometry width="50" height="50" relative="1" as="geometry">
            <mxPoint x="452.7000000000001" y="990" as="sourcePoint" />
            <mxPoint x="1200" y="990" as="targetPoint" />
          </mxGeometry>
        </mxCell>
        <mxCell id="KktWkr9wCJq6x6uFG-sO-9" value="&lt;font style=&quot;font-size: 11px;&quot;&gt;[Publier le commentaire]&lt;/font&gt;" style="text;html=1;align=center;verticalAlign=middle;whiteSpace=wrap;rounded=0;" vertex="1" parent="1">
          <mxGeometry x="490" y="840" width="130" height="30" as="geometry" />
        </mxCell>
        <mxCell id="KktWkr9wCJq6x6uFG-sO-10" value="&lt;font style=&quot;font-size: 11px;&quot;&gt;[Refuser le commentaire]&lt;/font&gt;" style="text;html=1;align=center;verticalAlign=middle;whiteSpace=wrap;rounded=0;" vertex="1" parent="1">
          <mxGeometry x="480" y="1120" width="140" height="30" as="geometry" />
        </mxCell>
        <mxCell id="KktWkr9wCJq6x6uFG-sO-11" value="" style="html=1;points=[[0,0,0,0,5],[0,1,0,0,-5],[1,0,0,0,5],[1,1,0,0,-5]];perimeter=orthogonalPerimeter;outlineConnect=0;targetShapes=umlLifeline;portConstraint=eastwest;newEdgeStyle={&quot;curved&quot;:0,&quot;rounded&quot;:0};" vertex="1" parent="1">
          <mxGeometry x="645" y="810" width="10" height="100" as="geometry" />
        </mxCell>
        <mxCell id="KktWkr9wCJq6x6uFG-sO-12" value="" style="html=1;points=[[0,0,0,0,5],[0,1,0,0,-5],[1,0,0,0,5],[1,1,0,0,-5]];perimeter=orthogonalPerimeter;outlineConnect=0;targetShapes=umlLifeline;portConstraint=eastwest;newEdgeStyle={&quot;curved&quot;:0,&quot;rounded&quot;:0};" vertex="1" parent="1">
          <mxGeometry x="1005" y="810" width="10" height="100" as="geometry" />
        </mxCell>
        <mxCell id="KktWkr9wCJq6x6uFG-sO-13" value="13 : Valider le commentaire" style="html=1;verticalAlign=bottom;endArrow=block;curved=0;rounded=0;entryX=1;entryY=0;entryDx=0;entryDy=5;entryPerimeter=0;exitX=0;exitY=0;exitDx=0;exitDy=5;exitPerimeter=0;" edge="1" parent="1" source="KktWkr9wCJq6x6uFG-sO-12" target="KktWkr9wCJq6x6uFG-sO-11">
          <mxGeometry width="80" relative="1" as="geometry">
            <mxPoint x="860" y="840" as="sourcePoint" />
            <mxPoint x="940" y="840" as="targetPoint" />
          </mxGeometry>
        </mxCell>
        <mxCell id="KktWkr9wCJq6x6uFG-sO-14" value="14 : Créer le compte utilisateur" style="html=1;verticalAlign=bottom;endArrow=open;dashed=1;endSize=8;curved=0;rounded=0;exitX=1;exitY=1;exitDx=0;exitDy=-5;exitPerimeter=0;entryX=0;entryY=1;entryDx=0;entryDy=-5;entryPerimeter=0;" edge="1" parent="1" source="KktWkr9wCJq6x6uFG-sO-11" target="KktWkr9wCJq6x6uFG-sO-12">
          <mxGeometry relative="1" as="geometry">
            <mxPoint x="780" y="860" as="sourcePoint" />
            <mxPoint x="1005" y="865" as="targetPoint" />
          </mxGeometry>
        </mxCell>
        <mxCell id="xbxIK14zJwuhyqyTTgjF-1" value="" style="html=1;points=[[0,0,0,0,5],[0,1,0,0,-5],[1,0,0,0,5],[1,1,0,0,-5]];perimeter=orthogonalPerimeter;outlineConnect=0;targetShapes=umlLifeline;portConstraint=eastwest;newEdgeStyle={&quot;curved&quot;:0,&quot;rounded&quot;:0};" vertex="1" parent="1">
          <mxGeometry x="635" y="870" width="10" height="40" as="geometry" />
        </mxCell>
        <mxCell id="xbxIK14zJwuhyqyTTgjF-2" value="&amp;nbsp;15 : Publier le commentaire" style="html=1;align=left;spacingLeft=2;endArrow=block;rounded=0;edgeStyle=orthogonalEdgeStyle;curved=0;rounded=0;exitX=0;exitY=0;exitDx=0;exitDy=5;exitPerimeter=0;" edge="1" parent="1" source="xbxIK14zJwuhyqyTTgjF-1">
          <mxGeometry relative="1" as="geometry">
            <mxPoint x="645" y="885" as="sourcePoint" />
            <Array as="points">
              <mxPoint x="490" y="875" />
              <mxPoint x="490" y="910" />
            </Array>
            <mxPoint x="635" y="910" as="targetPoint" />
          </mxGeometry>
        </mxCell>
      </root>
    </mxGraphModel>
  </diagram>
</mxfile>
